<svg width="100" height="100" viewBox="0 0 100 100" fill="none" xmlns="http://www.w3.org/2000/svg">
<path d="M50 100C22.5 100 0 77.5 0 50C0 22.5 22.5 0 50 0C77.5 0 100 22.5 100 50C100 77.5 77.5 100 50 100Z" fill="#E5F6F2"/>
<path d="M50.0999 83.8002C59.6999 83.8002 67.5 76.0002 67.5 66.4002C67.5 51.9002 54.5999 42.1002 50.0999 29.2002C45.4999 42.1002 32.7 51.9002 32.7 66.4002C32.7 76.0002 40.4999 83.8002 50.0999 83.8002Z" stroke="#245059" stroke-miterlimit="10"/>
<path d="M50.1001 77.9999C56.5001 77.9999 61.7001 72.7999 61.7001 66.3999C61.7001 62.8999 60.7001 59.6999 59.2001 56.4999M53.3001 46.6999C52.2001 45.0999 51.2001 43.4999 50.1001 41.8999L53.3001 46.6999Z" stroke="#245059" stroke-width="2" stroke-miterlimit="10" stroke-linecap="round" stroke-linejoin="round"/>
<path d="M50.0999 83.8002C59.6999 83.8002 67.5 76.0002 67.5 66.4002C67.5 51.9002 54.5999 42.1002 50.0999 29.2002C45.4999 42.1002 32.7 51.9002 32.7 66.4002C32.7 76.0002 40.4999 83.8002 50.0999 83.8002Z" stroke="#245059" stroke-width="2" stroke-miterlimit="10" stroke-linecap="round" stroke-linejoin="round"/>
<path d="M67.5 29.2001C70.1 29.2001 72.2 27.1001 72.2 24.5001C72.2 20.6001 68.8 18.0001 67.5 14.6001C66.3 18.1001 62.8 20.7001 62.8 24.5001C62.9 27.1001 65 29.2001 67.5 29.2001Z" stroke="#245059" stroke-width="2" stroke-miterlimit="10" stroke-linecap="round" stroke-linejoin="round"/>
<path d="M27 41.8998C29.6 41.8998 31.7001 39.7998 31.7001 37.1998C31.7001 33.2998 28.3 30.6998 27 27.2998C25.8 30.7998 22.3 33.3998 22.3 37.1998C22.3 39.7998 24.4 41.8998 27 41.8998Z" stroke="#245059" stroke-width="2" stroke-miterlimit="10" stroke-linecap="round" stroke-linejoin="round"/>
</svg>
