<svg width="100" height="100" viewBox="0 0 100 100" fill="none" xmlns="http://www.w3.org/2000/svg">
<path d="M50 100C22.5 100 0 77.5 0 50C0 22.5 22.5 0 50 0C77.5 0 100 22.5 100 50C100 77.5 77.5 100 50 100Z" fill="#E5F6F2"/>
<path d="M74.3001 48.6004H73.9001C74.0001 47.8004 74 47.0004 74 46.1004C74 36.1004 65.9 27.9004 55.8 27.9004C47.8 27.9004 41 33.0004 38.6 40.2004C37 38.2004 34.5 37.0004 31.8 37.0004C27 37.0004 23 40.9004 23 45.8004C23 46.0004 23 46.3004 23 46.5004C17.2 47.9004 12.8 53.1004 12.8 59.3004C12.8 66.6004 18.7 72.5004 26 72.5004H74.1C80.7 72.5004 86.1 67.1004 86.1 60.5004C86.1 53.9004 80.9001 48.6004 74.3001 48.6004Z" stroke="#245059" stroke-width="2" stroke-miterlimit="10" stroke-linecap="round" stroke-linejoin="round"/>
<path d="M42.9001 58.7002C42.2001 60.5002 40.5 61.8002 38.5 61.8002C35.9 61.8002 33.8 59.7002 33.8 57.1002V52.4002C33.8 49.8002 35.9 47.7002 38.5 47.7002C40.5 47.7002 42.3001 49.0002 42.9001 50.8002" stroke="#245059" stroke-width="2" stroke-miterlimit="10" stroke-linecap="round" stroke-linejoin="round"/>
<path d="M52.2 47.7002C49.6 47.7002 47.5 49.8002 47.5 52.4002V57.1002C47.5 59.7002 49.6 61.8002 52.2 61.8002C54.8 61.8002 56.9 59.7002 56.9 57.1002V52.4002C56.9 49.8002 54.8 47.7002 52.2 47.7002Z" stroke="#245059" stroke-width="2" stroke-miterlimit="10" stroke-linecap="round" stroke-linejoin="round"/>
<path d="M65.4 60.7003C65.8 60.7003 66.1 60.9003 66.1 61.4003C66.1 61.9003 65.8 62.1003 65.3 62.1003H61.4C60.8 62.1003 60.5 61.7003 60.5 61.3003C60.5 60.6003 61.2 59.7003 62.5 58.9003C63.9 58.0003 64.4 57.8003 64.4 57.0003C64.4 56.3003 63.9 56.0003 63.3 56.0003C62.6 56.0003 62.2 56.3003 62 57.1003C61.9 57.5003 61.8 57.7003 61.3 57.7003C60.9 57.7003 60.5 57.5003 60.5 57.0003C60.5 55.7003 61.7 54.8003 63.3 54.8003C65 54.8003 65.9 55.9003 65.9 56.8003C65.9 58.2003 65.3 58.7003 64.2 59.3003C63 60.0003 62.3 60.4003 62.2 60.8003H65.4V60.7003Z" fill="#245059"/>
<path d="M22.6001 32.7002C24.5331 32.7002 26.1001 31.1332 26.1001 29.2002C26.1001 27.2672 24.5331 25.7002 22.6001 25.7002C20.6671 25.7002 19.1001 27.2672 19.1001 29.2002C19.1001 31.1332 20.6671 32.7002 22.6001 32.7002Z" stroke="#245059" stroke-width="2" stroke-miterlimit="10" stroke-linecap="round" stroke-linejoin="round"/>
<path d="M79 65.3001C80.3 64.1001 81 62.4001 81 60.5001C81 56.8001 78.0001 53.8001 74.3001 53.8001H73.9001M68.8001 46.1001C68.8001 38.9001 63 33.1001 55.8 33.1001" stroke="#245059" stroke-width="2" stroke-miterlimit="10" stroke-linecap="round" stroke-linejoin="round"/>
</svg>
