<svg width="100" height="100" viewBox="0 0 100 100" fill="none" xmlns="http://www.w3.org/2000/svg">
<path d="M50 100C22.5 100 0 77.5 0 50C0 22.5 22.5 0 50 0C77.5 0 100 22.5 100 50C100 77.5 77.5 100 50 100Z" fill="#E5F6F2"/>
<path d="M77.6999 44.6C77.3999 46.9 75.0999 48.9 71.3999 50.6C71.1999 47.2 61.6999 44.6 50.0999 44.6C38.3999 44.6 28.8999 47.3 28.7999 50.7C25.0999 49.1 22.6999 47 22.3999 44.7C22.9999 39.3 35.0999 35 49.9999 35C64.8999 35 76.9999 39.3 77.6999 44.6Z" stroke="#245059" stroke-width="2" stroke-miterlimit="10" stroke-linecap="round" stroke-linejoin="round"/>
<path d="M77.6999 44.5999C77.6999 44.6999 77.6999 44.6999 77.6999 44.5999C77.7999 44.6999 77.7999 44.7999 77.7999 44.9999C77.7999 48.2999 76.7999 72.4999 50.0999 72.4999C45.6999 72.4999 41.8999 71.7999 38.7999 70.6999C32.4999 68.3999 28.5999 64.2999 26.1999 59.8999C22.5999 53.3999 22.3999 46.4999 22.3999 44.8999C22.3999 44.6999 22.3999 44.4999 22.3999 44.4999H22.4999C22.4999 44.4999 22.4999 44.4999 22.4999 44.3999C22.7999 46.6999 25.0999 48.6999 28.8999 50.3999C33.9999 52.5999 41.5999 53.9999 50.1999 53.9999C58.7999 53.9999 66.3999 52.5999 71.4999 50.2999C75.0999 48.9999 77.3999 46.8999 77.6999 44.5999Z" stroke="#245059" stroke-width="2" stroke-miterlimit="10" stroke-linecap="round" stroke-linejoin="round"/>
<path d="M50 72.5998C42 72.5998 36.3 70.3998 32.3 67.2998V70.3998C32.3 71.3998 32.8 72.1998 33.6 72.7998C37.5 75.3998 42.9 77.1998 50 77.1998C56.9 77.1998 62.1 75.5998 66 73.0998C66.8 72.5998 67.3001 71.6998 67.3001 70.6998V67.6998C63.3001 70.5998 57.8 72.5998 50 72.5998Z" stroke="#245059" stroke-width="2" stroke-miterlimit="10" stroke-linecap="round" stroke-linejoin="round"/>
<path d="M39.7 18.2998C39.7 18.2998 45.6 18.3998 42 23.3998C38.4 28.3998 43.2 28.9998 43.2 28.9998" stroke="#245059" stroke-width="2" stroke-miterlimit="10" stroke-linecap="round" stroke-linejoin="round"/>
<path d="M48.3 18.2998C48.3 18.2998 54.2 18.3998 50.6 23.3998C47 28.3998 51.8 28.9998 51.8 28.9998" stroke="#245059" stroke-width="2" stroke-miterlimit="10" stroke-linecap="round" stroke-linejoin="round"/>
<path d="M56.8999 18.2998C56.8999 18.2998 62.7999 18.3998 59.1999 23.3998C55.5999 28.3998 60.3999 28.9998 60.3999 28.9998" stroke="#245059" stroke-width="2" stroke-miterlimit="10" stroke-linecap="round" stroke-linejoin="round"/>
<path d="M71 55.1001C71 55.1001 69.6 60.9001 64.2 64.0001" stroke="#245059" stroke-width="2" stroke-miterlimit="10" stroke-linecap="round" stroke-linejoin="round"/>
</svg>
