<svg width="100" height="100" viewBox="0 0 100 100" fill="none" xmlns="http://www.w3.org/2000/svg">
<path d="M50 100C22.5 100 0 77.5 0 50C0 22.5 22.5 0 50 0C77.5 0 100 22.5 100 50C100 77.5 77.5 100 50 100Z" fill="#E5F6F2"/>
<path d="M70.9 32.5001V25.6001H66.2V30.5001" stroke="#245059" stroke-width="2" stroke-miterlimit="10" stroke-linecap="round" stroke-linejoin="round"/>
<path d="M24.5 69.6001H17.5" stroke="#245059" stroke-width="2" stroke-miterlimit="10" stroke-linecap="round" stroke-linejoin="round"/>
<path d="M82.5 69.6001H75.5" stroke="#245059" stroke-width="2" stroke-miterlimit="10" stroke-linecap="round" stroke-linejoin="round"/>
<path d="M26.1999 39.6001C25.5999 40.0001 24.9999 40.4001 24.3999 40.9001M75.4999 40.9001C74.8999 40.4001 74.2999 40.0001 73.6999 39.6001L75.4999 40.9001Z" stroke="#245059" stroke-width="2" stroke-miterlimit="10" stroke-linecap="round" stroke-linejoin="round"/>
<path d="M49.3999 53.2002V71.4002" stroke="#245059" stroke-width="2" stroke-miterlimit="10" stroke-linecap="round" stroke-linejoin="round"/>
<path d="M60.3999 56.7002V72.0002H38.3999V56.7002C38.3999 54.8002 39.9999 53.2002 41.8999 53.2002H56.9999C58.8999 53.2002 60.3999 54.8002 60.3999 56.7002Z" stroke="#245059" stroke-width="2" stroke-miterlimit="10" stroke-linecap="round" stroke-linejoin="round"/>
<path d="M60.3999 72H38.3999V76.6H60.3999V72Z" stroke="#245059" stroke-width="2" stroke-miterlimit="10" stroke-linecap="round" stroke-linejoin="round"/>
<path d="M19.6 39.0001C25.7 33.6001 32.9 30.2001 40.4 28.6001C40 29.3001 39.6 30.0001 39.3 30.7001C38.9 31.7001 38.7 32.7001 38.5 33.8001C34.2 35.0001 30.1 37.0001 26.3 39.6001C25.7 40.0001 25.1 40.4001 24.5 40.9001C23.9 41.4001 23.2 41.9001 22.6 42.5001C22.4 42.7001 22.2 42.8001 22 42.9001C21.5 43.1001 21.1 43.3001 20.6 43.3001C20 43.3001 19.5 43.1001 19.1 42.7001C18.1 41.7001 18.3 40.1001 19.6 39.0001Z" stroke="#245059" stroke-width="2" stroke-miterlimit="10" stroke-linecap="round" stroke-linejoin="round"/>
<path d="M81.5001 41.2C81.5001 41.7 81.3001 42.2 80.9001 42.6C80.2001 43.3 79.0001 43.4 77.9001 42.8C77.7001 42.7 77.5001 42.5 77.3001 42.4C76.7001 41.9 76.0001 41.3 75.4001 40.8C74.8001 40.3 74.2001 39.9 73.6001 39.5C69.8001 36.8 65.7001 34.9 61.4001 33.7C61.3001 32.6 61.0001 31.6 60.7001 30.6C60.4001 29.8 60.0001 29.1 59.6001 28.5C61.6001 28.9 63.7001 29.5 65.6001 30.2C67.9001 31 70.0001 32 72.0001 33.1C75.0001 34.7 77.8001 36.7 80.4001 39C81.2001 39.6 81.5001 40.5 81.5001 41.2Z" stroke="#245059" stroke-width="2" stroke-miterlimit="10" stroke-linecap="round" stroke-linejoin="round"/>
<path d="M46.3 62.2998V63.8998" stroke="#245059" stroke-width="2" stroke-miterlimit="10" stroke-linecap="round" stroke-linejoin="round"/>
<path d="M52.6001 62.2998V63.8998" stroke="#245059" stroke-width="2" stroke-miterlimit="10" stroke-linecap="round" stroke-linejoin="round"/>
<path d="M75.5 40.8998V76.6998H60.4V56.6998C60.4 54.7998 58.8 53.1998 56.9 53.1998H41.9C40 53.1998 38.4 54.7998 38.4 56.6998V76.6998H24.5V40.8998C25.1 40.3998 25.7 39.9998 26.3 39.5998C30.1 36.8998 34.2 34.9998 38.5 33.7998C38.5 34.1998 38.4 34.5998 38.4 34.9998C38.4 35.7998 38.5 36.4998 38.6 37.2998C38.8 38.0998 39 38.8998 39.4 39.6998C41.2 43.7998 45.3 46.6998 50 46.6998C54.7 46.6998 58.8 43.7998 60.6 39.6998C60.9 38.8998 61.2 38.0998 61.4 37.2998C61.6 36.5998 61.6 35.7998 61.6 34.9998C61.6 34.5998 61.6 34.1998 61.5 33.7998C65.8 34.9998 69.9 36.9998 73.7 39.5998C74.3 39.9998 74.9 40.3998 75.5 40.8998Z" stroke="#245059" stroke-width="2" stroke-miterlimit="10" stroke-linecap="round" stroke-linejoin="round"/>
<path d="M55 35.2998L54.0999 36.1998L50 40.4998L46 36.2998L45 35.2998C44.5 34.6998 44.2 33.9998 44.2 33.2998C44.2 33.0998 44.1999 32.7998 44.2999 32.5998C44.3999 31.9998 44.8 31.4998 45.2 31.0998C45.7 30.5998 46.5 30.2998 47.2 30.2998C47.7 30.2998 48.2999 30.4998 48.7999 30.7998C48.8999 30.8998 48.9999 30.9998 49.0999 31.0998C49.5999 31.4998 49.9 32.0998 50 32.7998C50.1 32.1998 50.5 31.5998 51 31.0998C51.1 30.9998 51.1999 30.8998 51.2999 30.7998C51.7999 30.4998 52.4 30.2998 52.9 30.2998C53.6 30.2998 54.3 30.5998 54.9 30.9998C55.3 31.3998 55.6999 31.8998 55.7999 32.5998C55.9999 33.5998 55.7 34.5998 55 35.2998Z" stroke="#245059" stroke-width="2" stroke-miterlimit="10" stroke-linecap="round" stroke-linejoin="round"/>
<path d="M61.5999 34.8998C61.5999 35.6998 61.4999 36.3998 61.3999 37.1998C61.1999 37.9998 60.9999 38.7998 60.5999 39.5998C58.7999 43.6998 54.6999 46.5998 49.9999 46.5998C45.2999 46.5998 41.1999 43.6998 39.3999 39.5998C39.0999 38.7998 38.7999 37.9998 38.5999 37.1998C38.3999 36.4998 38.3999 35.6998 38.3999 34.8998C38.3999 34.4998 38.3999 34.0998 38.4999 33.6998C38.5999 32.5998 38.8999 31.5998 39.2999 30.5998C39.5999 29.7998 39.9999 29.0998 40.3999 28.4998C42.4999 25.3998 45.9999 23.2998 50.0999 23.2998C54.1999 23.2998 57.6999 25.3998 59.7999 28.4998C60.1999 29.1998 60.5999 29.8998 60.8999 30.5998C61.2999 31.5998 61.4999 32.5998 61.5999 33.6998C61.5999 34.0998 61.5999 34.4998 61.5999 34.8998Z" stroke="#245059" stroke-width="2" stroke-miterlimit="10"/>
</svg>
